<svg width="60" height="68" viewBox="0 0 60 68" fill="none" xmlns="http://www.w3.org/2000/svg">
<path d="M27.5613 8.59933L27.3305 66.2903C26.0841 65.5922 25.0852 64.4988 24.4959 63.1674L0.946264 10.0779C-0.54142 6.72333 0.90154 2.79252 4.17244 1.29934C4.96859 0.934852 5.83325 0.739478 6.71155 0.725863C7.59019 0.711911 8.46315 0.879977 9.27648 1.21865L25.3251 7.9045C26.0525 8.20655 26.8057 8.43988 27.5658 8.60443L27.561 8.59967L27.5613 8.59933ZM33.1666 9.13264C33.5397 9.01758 33.9077 8.88521 34.2684 8.73621L50.2616 2.18442C53.5829 0.831455 57.382 2.48949 58.7417 5.89572C59.0744 6.73072 59.2385 7.62197 59.2253 8.51824C59.2117 9.41417 59.0212 10.2971 58.6642 11.1164L35.5581 64.0107C34.8976 65.5243 33.7537 66.6491 32.3919 67.2959L33.169 9.13027L33.1666 9.13264V9.13264Z" fill="#FF9A62"/>
</svg>
